<?xml version="1.0" standalone="no"?>
<!DOCTYPE svg PUBLIC "-//W3C//DTD SVG 20010904//EN"
 "http://www.w3.org/TR/2001/REC-SVG-20010904/DTD/svg10.dtd">
<svg version="1.0" xmlns="http://www.w3.org/2000/svg"
 width="512.000000pt" height="512.000000pt" viewBox="0 0 512.000000 512.000000"
 preserveAspectRatio="xMidYMid meet">
<metadata>
Created by potrace 1.14, written by Peter Selinger 2001-2017
</metadata>
<g transform="translate(0.000000,512.000000) scale(0.100000,-0.100000)"
fill="#000000" stroke="none">
<path d="M2349 4976 c-2 -2 -35 -7 -74 -11 -38 -3 -101 -13 -140 -20 -38 -8
-81 -16 -95 -19 -463 -90 -965 -385 -1289 -757 -126 -144 -182 -221 -276 -378
-121 -201 -243 -508 -281 -704 -2 -12 -8 -44 -13 -72 -30 -153 -39 -254 -39
-460 0 -104 4 -217 9 -250 4 -33 11 -82 14 -110 3 -27 8 -57 10 -65 2 -8 7
-31 10 -50 3 -19 15 -71 26 -115 220 -877 937 -1574 1819 -1768 63 -14 140
-29 170 -33 30 -4 66 -9 80 -11 49 -10 476 -11 540 -2 36 5 83 12 105 15 63 8
96 14 145 25 25 6 54 12 64 15 10 2 60 15 110 30 267 76 562 226 786 399 103
79 128 102 255 229 310 312 520 687 628 1121 14 55 28 120 32 145 4 25 9 52
10 60 20 109 28 522 13 640 -4 30 -10 75 -13 100 -12 86 -56 269 -90 375 -150
463 -423 852 -820 1170 -150 120 -419 270 -630 353 -52 20 -179 62 -205 67 -8
2 -42 10 -75 18 -52 13 -127 28 -265 53 -40 7 -514 17 -521 10z"/>
</g>
</svg>
